<?xml version="1.0" encoding="utf-8"?>
<!-- Generator: Adobe Illustrator 23.0.5, SVG Export Plug-In . SVG Version: 6.00 Build 0)  -->
<svg version="1.1" id="Layer_1" xmlns="http://www.w3.org/2000/svg" xmlns:xlink="http://www.w3.org/1999/xlink" x="0px" y="0px"
	 viewBox="0 0 775.19 157.95" style="enable-background:new 0 0 775.19 157.95;" xml:space="preserve">
<style type="text/css">
	.st0{clip-path:url(#SVGID_2_);}
	.st1{clip-path:url(#SVGID_4_);fill:#0054A4;}
	.st2{clip-path:url(#SVGID_6_);fill:#FFFFFF;}
	.st3{clip-path:url(#SVGID_6_);fill:#0054A4;}
</style>
<g>
	<g>
		<defs>
			<rect id="SVGID_1_" x="-46.77" y="-247.63" width="841.89" height="595.28"/>
		</defs>
		<clipPath id="SVGID_2_">
			<use xlink:href="#SVGID_1_"  style="overflow:visible;"/>
		</clipPath>
		<g class="st0">
			<defs>
				<rect id="SVGID_3_" x="-33.61" y="1.24" width="809.49" height="151.28"/>
			</defs>
			<clipPath id="SVGID_4_">
				<use xlink:href="#SVGID_3_"  style="overflow:visible;"/>
			</clipPath>
			<path class="st1" d="M-33.66,34.2h62.52C42.5,14.31,65.47,1.24,91.47,1.24c26,0,48.97,13.07,62.69,32.96h317.11h304.62v42.69
				v42.68H471.27H154.16c-13.72,19.89-36.69,32.95-62.69,32.95c-26,0-48.97-13.06-62.61-32.95h-62.52V76.89V34.2z"/>
		</g>
		<g class="st0">
			<defs>
				<rect id="SVGID_5_" x="-46.77" y="-247.63" width="841.89" height="595.28"/>
			</defs>
			<clipPath id="SVGID_6_">
				<use xlink:href="#SVGID_5_"  style="overflow:visible;"/>
			</clipPath>
			<path class="st2" d="M91.53,19.83c31.61,0,57.23,25.54,57.23,57.05c0,31.51-25.62,57.05-57.23,57.05s-57.23-25.54-57.23-57.05
				C34.31,45.37,59.93,19.83,91.53,19.83 M138.36,45.46l9.48,32.67v0.36c0,0.65-0.39,1.61-0.61,2.24c-0.41,1.16-0.82,2.32-1.24,3.48
				c-1.24,3.46-2.5,6.91-3.75,10.36c-1.84,5.06-3.69,10.13-5.54,15.18l-0.28,0.77l-28.59,19.48H73.38L45.26,108.5l-0.25-0.76
				c-3.25-10.14-5.9-20.48-9.48-30.51l-0.3-0.85L46.5,43.82l28.89-20.08h33.6L138.36,45.46z"/>
			<path class="st3" d="M138.31,45.47l9.6,33.1c0,0.38-11.55,31.94-11.55,31.94l-28.64,19.52H73.3l-28.16-21.54
				c-3.42-10.66-6.23-21.62-9.99-32.16l11.25-32.5l28.94-20.12h33.57L138.31,45.47z"/>
			<path class="st2" d="M98.52,65.26L74.3,65.73c1.64,2.11,3.94,3.18,6.4,3.61c6.18,0.69,12.76-0.52,19.12-0.77
				c0.48-0.39,0.55-0.62,0.77-1.37c0.3-0.74,0.49-1.67,0.18-1.93H98.52z M95.88,60.14c2.03,0.17,3.89,1.42,5.88,1.93
				c0.6,0.52,1.47,0.56,1.95,1.16c-0.56,2.49-0.18,6.15-3.16,6.88c-1.51,0.13-2.62,0.3-4.76,0.39c-3.59,0.24-7.07,0.37-8.19,0.5
				c-2.59,0.33-4.79,0.31-7.17,0.27c-4.32-0.65-8.04-4-10.12-7.78c-0.04-0.26,0.13-0.47,0.35-0.56c5.19-1.12,10.73-1.46,15.88-2.71
				C89.52,59.8,92.9,59.37,95.88,60.14 M84.03,57.52c-6.23,1.38-12.41,2.93-18.6,4.43c2.51,4.26,5.45,8.43,8.48,12.42l19.25-0.3
				l10.51-0.22c0.22-0.73,2.25-6.49,2.86-8.68c0.26-0.99,0.85-2.7,0.17-3.24c-1.12-0.64-2.47-1.36-3.46-1.88
				c-1.73-0.86-2.64-1.19-4.32-2.14C94.37,55.8,88.7,56.27,84.03,57.52"/>
			<path class="st2" d="M113.01,63.8c-1.56-1.01-3.4,1.09-4.93,2.32c-0.36,1.13-0.91,2.49-1.08,3.7c-0.09,0.26-0.17,0.77,0.09,0.95
				c0.3-0.08,0.8-0.18,1.29-0.67c2.21-1.55,3.77-3.59,5.85-5.22l-0.13-0.3C113.71,64.31,113.23,64.14,113.01,63.8"/>
			<path class="st2" d="M75.25,82.67c-0.31,0.6-0.52,1.33-0.39,2.02l3.89,4.17c0.26,0.52,0.69,0.86,1.17,1.25
				c0.43-0.17,1.12-0.26,1.17-0.86c-1.77-2.28-2.98-4.99-4.84-7.35C75.85,81.98,75.46,82.28,75.25,82.67"/>
			<path class="st2" d="M117.03,66.51c-0.55-0.12-1.2,0.04-2.37,0.83c-3.75,2.38-9.39,7.27-9.48,7.94c-0.7,1.48-0.77,3.61-1.3,5.02
				c0.09-0.13,0.35-0.56,0.48-0.56c4.63-3.91,9-7.95,13.63-11.95C118.46,66.98,117.67,66.82,117.03,66.51"/>
			<path class="st2" d="M100.38,75.92l-25.31,0.47c0.87,1.51,6.15,9.93,6.92,9.84c2.64-0.26,5.04-0.36,7.56-0.61
				c2.19-0.22,9.57-0.11,11.69-3.35c0.69-1.76,1.34-4.07,1.56-6.36H100.38z"/>
			<path class="st2" d="M51.89,98.62l-3.81-2.02c-0.17,0.9,0.17,1.85,0.61,2.62c7.66,3.95,15.07,8.46,22.75,12.38
				c2.6,1.32,2.87,1.13,9.01,0.62c2.43-0.2,3.6-0.4,5.83-0.62c0.19-0.59,0.52-1.38,0.56-2.02c0,0-8.91,0.77-13.02,1.33l-4.98-2.79
				L51.89,98.62z"/>
			<path class="st2" d="M46.92,91.87c-0.26,0.6,0.09,1.33,0.3,1.94l26.39,14.48l1.08,0.43c4.37-0.51,8.74-1.08,13.06-1.59
				c0.69-0.52,0.78-1.55,1.04-2.32l-0.17-0.17c-4.76,0.56-9.43,1.33-14.14,2.02C72.18,105.5,53.88,95.35,46.92,91.87"/>
			<path class="st2" d="M49.55,88.56c-0.56,0.39-1.3,0.69-1.64,1.25l26.48,14.53c1.3,0.2,3.6-0.33,5.45-0.69
				c0.57-0.11,6.61-1.07,9.56-1.5c0.95-0.48,1.08-1.68,1.43-2.62l-15.19,2.24l-7.87-4C61.71,94.67,55.65,91.48,49.55,88.56"/>
			<path class="st2" d="M112.36,116.93c-1.69,1.59-3.42,3.35-5.15,4.82c-0.09,0.73,0.13,1.67,0.74,2.32
				c0.17-0.04,0.39,0.04,0.52-0.09c2.12-1.85,4.37-3.27,6.4-5.25c0-0.26,0-0.51-0.26-0.64
				C113.96,117.45,113.36,116.97,112.36,116.93"/>
			<path class="st2" d="M125.3,75.1l-21.24,22.48l-11.07,1.64c-0.43,1.33-2.94,8.13-3.68,10.23c-0.64,1.7-0.99,3.01-1.77,4.39
				l-14.62,1.25l-23.27-13.07c-0.17-0.04-0.3,0-0.39,0.13l0.69,3.65l24.83,17.41l30.37,0.3l-1.95-5.72
				c0.18-0.77,0.78-1.25,1.38-1.76c4.97-5.24,10.08-10.23,15.06-15.43c1.21-4.3,2.03-8.77,3.16-13.11c0.69,0.13,1.3,0.43,1.95,0.69
				c-0.6,3.57-1.82,6.88-2.34,10.49c-0.52,1.51-0.35,3.4-1.99,4.34c-5.02,4.94-9.78,10.1-14.79,15l-0.09,0.47
				c0.17,0.39,0.3,0.95,0.69,1.07c2.08-1.42,3.85-3.74,5.75-5.25c1.99,0,3.42,1.76,5.15,2.54c5.24-3.83,10.08-7.69,15.1-11.91
				c0.95-3.61,2.29-7.13,3.29-10.66c0.78-3.22,1.77-6.36,2.64-9.59C133.95,81.34,129.49,78.46,125.3,75.1"/>
			<path class="st2" d="M50.07,53.57l-0.99-0.3c-0.43,0.43-0.39,1.03-0.95,1.38c-0.22,1.2-1.03,2.15-1.21,3.35
				c-1.04,1.33-0.86,3.18-1.64,4.64c-1.43,4.26-1.64,8.73-2.33,13.16c0.13,0.99-0.35,2.11,0.39,2.92C54.27,85.03,65,91.3,75.9,97.66
				l1.42,0.48c7.4-1.59,15.01-2.71,22.36-4.43c5.28-0.39,8.13-5.25,11.12-9.12c3.81-4.9,7.18-9.71,10.82-14.7
				c-0.26-0.56-0.7-0.86-1.21-1.08c-6.49,4.43-11.8,10.22-17.77,15.29c-0.64,0.65-1.39,0.79-1.96,1.26
				c-1.9,0.95-3.88,1.16-6.32,1.38c-3.53,0.31-11.52,1.07-11.52,1.07s0.75,1.25,0.79,1.98c-0.69,1.16-1.66,1.46-2.94,2.32
				c-1.52,0.91-2.03,1.89-3.37,1.46C68.63,86.63,59.85,79.71,51.2,72.7c0.3-0.39,0.52-1.21,1.21-1.03c0.3,0.34,0.86,0.26,0.95,0.77
				c8,6.32,15.79,12.77,23.83,18.92c0.35,0.21,0.95,0.3,1.17-0.17c-1.95-2.19-3.98-4-5.75-6.19c0.17-1.8,1.34-3.27,1.99-4.86
				c-2.85-5.33-6.71-10.27-9.86-15.48l-1.86-1.93L50.07,53.57z"/>
			<path class="st2" d="M107.22,28.33c-4.8,0.26-9.52,0.73-14.32,1.12c-6.36,0.56-12.98,0.43-18.6,2.75
				c-7.14,4.21-13.76,9.11-20.55,13.8c-0.47,0.43-0.47,1.29-0.21,1.85c2.07-1.16,4.11-2.54,6.23-3.7c4.37-2.62,8.78-5.16,13.24-7.69
				c8.22-5.37,19.29-3.44,29.16-4.64c0.43,0.39,0.13,1.07,0.35,1.55c-1.51,0.38-3.25,0.21-4.76,0.47c-7.01,0.95-15.45-0.6-21.5,3.1
				c-2.18,0.87-18.9,10.79-22.8,13.45c0.26,0.6,0.87,1.42,1.56,1.42c3.68-1.89,7.28-3.92,10.9-5.98c2.83-1.61,7.83-4.51,12.07-6.28
				c2.03-0.56,4.11-1.16,6.23-1.68c6.14-0.3,12.37-0.69,18.51-0.86c-0.04,0.47,0.13,1.03-0.17,1.38l-19.51,1.16l-0.17,0.17
				c-0.95,0-1.64,0.6-2.55,0.69c-2.9,0.9-5.52,2.44-8.18,3.87C66.71,47.19,61.23,50,56,53.18c0.52,0.78,1.17,1.42,1.94,1.94
				c6.62-2.88,13.24-5.68,19.77-8.64c2.12-1.21,4.33-2.06,6.7-2.58c6.23-0.52,12.2-0.73,18.47-1.08c0.26,0.52,0.43,1.25,0.13,1.76
				l-17.99,1.03l-2.94,0.77L59.42,56.53c0.64,0.77,1.3,1.55,1.94,2.23c7.74-1.93,15.31-4.21,23.06-6.1l17.13-0.26l39.88,25.15
				l-1.64-6.27l-5.32-21.11l-26.99-21.45L107.22,28.33z"/>
			<path class="st3" d="M118.29,41.87v6.66l11.68,6.45c0.22-0.69,0.69-1.29,0.61-2.11c-3.76-3.7-8.05-7.52-11.98-11.01H118.29z"/>
			<path class="st2" d="M25.98,76.74c1.1,0,2,0.89,2,1.99c0,1.1-0.89,1.99-2,1.99c-1.1,0-2-0.89-2-1.99
				C23.99,77.63,24.88,76.74,25.98,76.74 M157.08,76.74c1.1,0,2,0.89,2,1.99c0,1.1-0.89,1.99-2,1.99c-1.1,0-2-0.89-2-1.99
				C155.09,77.63,155.98,76.74,157.08,76.74"/>
			<path class="st2" d="M32.8,57.22l-2.24-0.9l0.27-0.47c0.85,0.14,1.55,0.1,2.1-0.11c0.55-0.21,0.94-0.58,1.15-1.13
				c0.17-0.42,0.17-0.83-0.01-1.22c-0.18-0.39-0.49-0.68-0.93-0.86c-0.38-0.15-0.77-0.19-1.16-0.09c-0.39,0.09-1.02,0.42-1.88,0.99
				c-1.06,0.7-1.82,1.1-2.31,1.2c-0.48,0.1-0.98,0.04-1.49-0.16c-0.74-0.3-1.24-0.76-1.51-1.4c-0.27-0.63-0.25-1.32,0.05-2.07
				c0.15-0.36,0.36-0.71,0.65-1.07c0.28-0.35,0.65-0.7,1.08-1.07l1.94,0.78l-0.22,0.54c-0.73-0.18-1.33-0.18-1.82-0.01
				c-0.48,0.18-0.83,0.53-1.05,1.06c-0.17,0.42-0.19,0.82-0.05,1.18c0.14,0.37,0.4,0.63,0.78,0.78c0.22,0.09,0.43,0.13,0.65,0.13
				c0.22,0,0.42-0.04,0.63-0.13c0.32-0.14,0.86-0.46,1.64-0.97c0.41-0.27,0.74-0.48,0.97-0.63c0.63-0.39,1.17-0.64,1.63-0.72
				c0.46-0.08,0.92-0.03,1.39,0.15c0.83,0.33,1.39,0.86,1.69,1.59c0.29,0.73,0.27,1.52-0.08,2.38c-0.19,0.46-0.43,0.87-0.75,1.24
				C33.61,56.61,33.24,56.93,32.8,57.22 M37.63,47.23c-0.02,0.35-0.06,0.67-0.12,0.96c-0.07,0.29-0.17,0.55-0.29,0.78
				c-0.21,0.4-0.48,0.63-0.79,0.67c-0.32,0.05-0.78-0.09-1.39-0.42l-3.96-2.1l-0.43,0.81l-0.35-0.18c0.04-0.3,0.02-0.64-0.05-1.02
				c-0.07-0.38-0.2-0.8-0.39-1.27L30,45.19l1.1,0.58l0.78-1.45l0.55,0.29l-0.78,1.46l3.84,2.04c0.37,0.2,0.63,0.28,0.79,0.26
				c0.16-0.02,0.3-0.15,0.43-0.38c0.04-0.08,0.09-0.2,0.16-0.37c0.07-0.17,0.15-0.39,0.24-0.66L37.63,47.23z M42.54,40.52
				l-8.23-2.26c-0.01,0-0.02,0-0.04-0.01c-1.23-0.34-1.98-0.33-2.26,0.05l-0.04,0.05l-0.48-0.35l2.13-2.92l0.48,0.35l-0.04,0.06
				c-0.17,0.23-0.26,0.43-0.26,0.61c0,0.18,0.07,0.32,0.23,0.44c0.05,0.04,0.12,0.07,0.21,0.11c0.09,0.04,0.18,0.07,0.29,0.1
				l6.46,1.77c-0.42-0.61-0.97-1.41-1.65-2.42c-1.35-2-2.15-3.1-2.43-3.3c-0.18-0.13-0.38-0.15-0.6-0.06
				c-0.22,0.09-0.44,0.27-0.65,0.57l-0.03,0.04L35.16,33l1.83-2.51l0.48,0.35l-0.02,0.02c-0.31,0.42-0.02,1.26,0.85,2.5l0.06,0.09
				c0.69,0.98,1.54,2.24,2.57,3.78c1.03,1.54,1.69,2.47,1.99,2.8L42.54,40.52z M39.26,29.19c-0.17-0.16-0.25-0.35-0.27-0.57
				c-0.01-0.22,0.06-0.41,0.21-0.57c0.15-0.16,0.34-0.23,0.56-0.23c0.22,0.01,0.42,0.09,0.58,0.25c0.17,0.16,0.25,0.35,0.26,0.57
				c0.01,0.22-0.06,0.41-0.22,0.56c-0.15,0.16-0.34,0.24-0.56,0.24C39.62,29.43,39.42,29.35,39.26,29.19 M42.39,32l-0.97,0.35
				l-0.28-0.27l0.83-1.77l0.24-0.24l3.57,3.44c0.35,0.34,0.64,0.52,0.85,0.54c0.21,0.02,0.46-0.1,0.74-0.34l0.46,0.44l-2.25,2.32
				l-0.46-0.44c0.25-0.29,0.36-0.54,0.33-0.77c-0.03-0.23-0.21-0.51-0.55-0.84L42.39,32z M48.29,33.38l-0.41-0.48
				c0.28-0.26,0.41-0.5,0.41-0.74c-0.01-0.23-0.16-0.53-0.46-0.89l-2.23-2.65l-1,0.24l-0.26-0.3l1-1.66l0.27-0.22l0.6,0.72
				c0.08-0.47,0.21-0.88,0.38-1.23c0.18-0.35,0.4-0.64,0.66-0.86c0.45-0.38,0.9-0.52,1.35-0.42c0.44,0.1,0.92,0.46,1.43,1.06
				l1.72,2.05c0.32,0.38,0.58,0.59,0.78,0.64c0.2,0.05,0.43-0.02,0.71-0.22l0.41,0.49l-2.37,1.98l-0.4-0.49
				c0.26-0.26,0.39-0.49,0.39-0.71c0-0.21-0.16-0.51-0.48-0.88l-1.74-2.07c-0.33-0.39-0.6-0.6-0.81-0.65
				c-0.21-0.05-0.45,0.04-0.72,0.27c-0.19,0.16-0.36,0.37-0.5,0.62c-0.14,0.25-0.26,0.55-0.38,0.92l2.16,2.57
				c0.32,0.38,0.58,0.59,0.79,0.63c0.21,0.04,0.47-0.05,0.77-0.26l0.41,0.48L48.29,33.38z M58.04,23.94
				c0.01,0.64-0.08,1.21-0.29,1.68c-0.2,0.48-0.5,0.85-0.9,1.13c-0.67,0.47-1.39,0.59-2.17,0.37c-0.77-0.23-1.46-0.76-2.05-1.62
				c-0.59-0.84-0.83-1.7-0.72-2.59c0.11-0.89,0.54-1.6,1.29-2.13c0.48-0.33,0.97-0.49,1.48-0.48c0.51,0.02,0.88,0.19,1.11,0.52
				c0.1,0.15,0.13,0.31,0.09,0.49c-0.05,0.18-0.15,0.33-0.32,0.44c-0.18,0.12-0.43,0.07-0.76-0.16c-0.13-0.08-0.22-0.15-0.3-0.19
				c-0.19-0.11-0.4-0.16-0.61-0.15c-0.21,0.01-0.42,0.09-0.61,0.22c-0.42,0.3-0.64,0.7-0.65,1.2c-0.01,0.51,0.18,1.04,0.58,1.61
				c0.47,0.68,1.02,1.12,1.64,1.32c0.62,0.21,1.18,0.14,1.67-0.2c0.24-0.17,0.44-0.39,0.62-0.66c0.17-0.27,0.3-0.58,0.38-0.91
				L58.04,23.94z M58.27,20.1l2.4-1.33c-0.24-0.38-0.54-0.63-0.88-0.75c-0.34-0.11-0.68-0.08-1.01,0.1
				c-0.3,0.16-0.49,0.42-0.58,0.76C58.1,19.22,58.13,19.63,58.27,20.1 M63.52,20.94c-0.04,0.67-0.18,1.21-0.41,1.63
				c-0.23,0.42-0.56,0.76-1.01,1c-0.75,0.42-1.51,0.48-2.28,0.19c-0.77-0.29-1.4-0.88-1.89-1.77c-0.5-0.9-0.68-1.79-0.54-2.66
				c0.14-0.87,0.57-1.5,1.29-1.9c0.6-0.33,1.24-0.39,1.91-0.18c0.67,0.21,1.23,0.66,1.68,1.33l-3.14,1.74
				c-0.27,0.14-0.42,0.25-0.46,0.31c-0.04,0.06-0.02,0.16,0.04,0.27c0.36,0.65,0.85,1.11,1.47,1.38c0.62,0.28,1.17,0.28,1.66,0.01
				c0.26-0.14,0.49-0.34,0.68-0.6c0.19-0.25,0.35-0.57,0.48-0.95L63.52,20.94z M64.86,21.73l-0.23-0.59
				c0.35-0.15,0.55-0.34,0.62-0.56c0.07-0.22,0.02-0.55-0.14-0.99l-1.25-3.23l-1.03-0.1l-0.14-0.37l1.49-1.25l0.33-0.12l0.33,0.87
				c0.23-0.42,0.48-0.76,0.76-1.04c0.28-0.27,0.58-0.47,0.9-0.6c0.55-0.21,1.02-0.2,1.41,0.04c0.39,0.24,0.72,0.73,1.01,1.47
				l0.96,2.49c0.18,0.46,0.36,0.75,0.53,0.86c0.17,0.11,0.42,0.12,0.74,0.03l0.23,0.59l-2.89,1.11l-0.22-0.59
				c0.33-0.16,0.53-0.34,0.6-0.54c0.07-0.2,0.01-0.53-0.16-0.99l-0.97-2.52c-0.18-0.47-0.37-0.76-0.55-0.87
				c-0.18-0.11-0.44-0.11-0.77,0.02c-0.24,0.09-0.46,0.23-0.67,0.42c-0.21,0.19-0.43,0.44-0.66,0.75l1.21,3.13
				c0.18,0.46,0.36,0.74,0.54,0.85c0.19,0.11,0.46,0.11,0.82,0l0.23,0.59L64.86,21.73z M75.99,17.62c-0.27,0.23-0.53,0.41-0.79,0.56
				c-0.26,0.15-0.51,0.25-0.77,0.32c-0.44,0.12-0.79,0.08-1.04-0.12c-0.25-0.2-0.46-0.63-0.64-1.29l-1.16-4.32l-0.89,0.24l-0.1-0.38
				c0.25-0.18,0.49-0.42,0.71-0.73c0.23-0.31,0.45-0.69,0.66-1.15l0.31-0.08l0.32,1.19l1.6-0.43l0.16,0.6l-1.6,0.43l1.13,4.19
				c0.11,0.4,0.22,0.65,0.35,0.76c0.13,0.1,0.32,0.12,0.57,0.05c0.09-0.03,0.21-0.07,0.38-0.13c0.17-0.06,0.38-0.15,0.65-0.27
				L75.99,17.62z M83.67,7.4L82.7,7.06l-0.05-0.39l1.76-0.84l0.35-0.04l1.05,8.52c0.05,0.42,0.13,0.69,0.24,0.8
				c0.11,0.11,0.3,0.16,0.57,0.12c0.07-0.01,0.12-0.02,0.15-0.02c0.04-0.01,0.07-0.01,0.1-0.02l0.07,0.55l-2.2,0.63l-0.11-0.9
				c-0.38,0.38-0.73,0.66-1.02,0.83c-0.3,0.18-0.59,0.28-0.89,0.32c-0.69,0.08-1.3-0.13-1.82-0.65c-0.52-0.52-0.84-1.24-0.95-2.15
				c-0.13-1.07,0.07-2.01,0.59-2.83c0.52-0.82,1.22-1.29,2.09-1.39c0.18-0.02,0.38-0.01,0.6,0.04c0.22,0.05,0.47,0.13,0.74,0.24
				L83.67,7.4z M84.56,14.83l-0.36-2.95c-0.07-0.6-0.26-1.04-0.55-1.31c-0.29-0.28-0.68-0.39-1.18-0.33
				c-0.5,0.06-0.87,0.34-1.11,0.83c-0.24,0.5-0.31,1.14-0.22,1.92c0.1,0.82,0.34,1.46,0.73,1.92c0.39,0.46,0.84,0.66,1.37,0.59
				c0.2-0.02,0.4-0.08,0.59-0.18C84.02,15.23,84.27,15.07,84.56,14.83 M88.73,11.09l2.74-0.05c-0.04-0.45-0.18-0.81-0.43-1.07
				c-0.25-0.26-0.56-0.39-0.95-0.38c-0.34,0.01-0.63,0.14-0.86,0.4C88.99,10.24,88.83,10.61,88.73,11.09 M92.97,14.29
				c-0.35,0.57-0.73,0.99-1.13,1.25c-0.4,0.27-0.85,0.41-1.36,0.41c-0.86,0.01-1.56-0.28-2.1-0.9c-0.54-0.61-0.82-1.43-0.84-2.44
				c-0.02-1.03,0.24-1.9,0.78-2.6c0.54-0.7,1.21-1.06,2.04-1.07c0.69-0.01,1.27,0.23,1.77,0.74c0.49,0.5,0.78,1.16,0.85,1.96
				l-3.59,0.06c-0.31,0-0.49,0.03-0.55,0.06c-0.06,0.04-0.09,0.13-0.09,0.26c0.01,0.74,0.23,1.38,0.65,1.91
				c0.42,0.54,0.9,0.8,1.47,0.79c0.3,0,0.59-0.07,0.88-0.21c0.29-0.14,0.58-0.34,0.87-0.61L92.97,14.29z M97.14,16.07l0.08-0.63
				c0.54,0,0.91-0.09,1.12-0.26c0.2-0.17,0.35-0.56,0.42-1.15l0.7-5.69c0.08-0.66,0.04-1.11-0.12-1.34c-0.16-0.23-0.49-0.38-1-0.44
				l0.07-0.59l3.68,0.45c1.36,0.17,2.33,0.51,2.93,1.02c0.6,0.51,0.84,1.22,0.73,2.13c-0.1,0.82-0.49,1.46-1.18,1.92
				c-0.69,0.46-1.52,0.63-2.51,0.51c-0.38-0.05-0.62-0.11-0.72-0.18c-0.1-0.07-0.15-0.19-0.12-0.36c0.01-0.11,0.04-0.19,0.09-0.23
				c0.05-0.04,0.14-0.05,0.27-0.04c0.03,0.01,0.07,0.01,0.13,0.02c0.05,0.01,0.09,0.02,0.12,0.02c0.58,0.07,1.08-0.07,1.5-0.42
				c0.42-0.35,0.66-0.84,0.74-1.46c0.08-0.63-0.06-1.15-0.4-1.56c-0.35-0.41-0.86-0.65-1.55-0.74c-0.39-0.05-0.64-0.04-0.76,0.01
				c-0.12,0.05-0.19,0.21-0.23,0.48l-0.04,0.37l-0.78,6.3c-0.07,0.59-0.03,1,0.13,1.22s0.5,0.39,1.03,0.52l-0.08,0.63L97.14,16.07z
				 M110.75,18.3c-0.21,0.18-0.43,0.31-0.65,0.38c-0.22,0.07-0.43,0.08-0.62,0.02c-0.21-0.05-0.37-0.18-0.49-0.37
				c-0.12-0.2-0.18-0.45-0.18-0.76c-0.37,0.2-0.72,0.32-1.05,0.38c-0.33,0.06-0.64,0.05-0.93-0.03c-0.44-0.12-0.77-0.35-0.98-0.7
				c-0.22-0.35-0.27-0.73-0.16-1.14c0.16-0.58,0.54-1.01,1.15-1.27c0.61-0.26,1.55-0.4,2.82-0.4l0.25-0.92
				c0.1-0.39,0.09-0.72-0.03-0.99c-0.13-0.27-0.36-0.44-0.7-0.53c-0.29-0.08-0.54-0.08-0.74,0c-0.2,0.08-0.33,0.21-0.38,0.41
				c-0.04,0.14-0.04,0.31,0.01,0.51c0.04,0.2,0.06,0.32,0.05,0.35c-0.02,0.08-0.16,0.15-0.41,0.21c-0.25,0.06-0.48,0.07-0.67,0.01
				c-0.1-0.03-0.17-0.14-0.19-0.34c-0.03-0.2,0-0.44,0.07-0.71c0.12-0.44,0.45-0.75,1-0.92c0.55-0.17,1.18-0.16,1.9,0.03
				c0.63,0.17,1.05,0.42,1.25,0.75c0.2,0.33,0.22,0.8,0.06,1.4l-0.92,3.41c-0.06,0.23-0.08,0.39-0.07,0.48
				c0.02,0.1,0.07,0.16,0.16,0.19c0.09,0.02,0.18,0.03,0.29,0.02c0.1-0.01,0.21-0.03,0.32-0.07L110.75,18.3z M109.5,15.06
				c-0.77,0.01-1.35,0.1-1.74,0.25c-0.38,0.15-0.62,0.4-0.71,0.72c-0.07,0.25-0.03,0.47,0.09,0.68c0.13,0.21,0.32,0.34,0.58,0.41
				c0.22,0.06,0.43,0.06,0.64,0.01c0.21-0.05,0.43-0.17,0.66-0.33L109.5,15.06z M113.48,13.2l0.17-0.45l2.04,0.64l-1.68,4.36
				c-0.16,0.41-0.2,0.74-0.12,0.98c0.08,0.24,0.28,0.43,0.61,0.55c0.27,0.11,0.56,0.15,0.84,0.15c0.29-0.01,0.57-0.07,0.86-0.19
				l1.29-3.34c0.17-0.43,0.21-0.73,0.14-0.9c-0.07-0.18-0.29-0.34-0.66-0.5l0.17-0.42l2.13,0.67l-1.82,4.72
				c-0.15,0.39-0.2,0.67-0.16,0.82c0.04,0.16,0.19,0.28,0.44,0.38c0.07,0.03,0.12,0.04,0.15,0.05c0.03,0.01,0.06,0.02,0.09,0.03
				l-0.2,0.52l-2.18-0.46l0.34-0.89c-0.56,0.15-1.02,0.23-1.38,0.25c-0.37,0.02-0.68-0.02-0.95-0.13c-0.51-0.2-0.83-0.53-0.97-1
				c-0.14-0.47-0.08-1.05,0.19-1.73l1.09-2.83c0.15-0.39,0.2-0.67,0.16-0.84c-0.04-0.17-0.19-0.3-0.45-0.4L113.48,13.2z
				 M118.37,21.96l0.29-0.57c0.35,0.15,0.63,0.18,0.84,0.09c0.21-0.1,0.43-0.35,0.64-0.77l3.19-6.24l-0.62-0.82l0.18-0.35l1.94,0.29
				l0.31,0.16l-3.86,7.55c-0.23,0.44-0.32,0.77-0.27,0.97s0.22,0.4,0.54,0.6l-0.28,0.57L118.37,21.96z M125.79,25.54l1.38-1.97
				l0.4,0.36c-0.33,0.8-0.45,1.49-0.36,2.07c0.08,0.58,0.36,1.04,0.84,1.38c0.38,0.26,0.77,0.35,1.2,0.26
				c0.43-0.09,0.77-0.32,1.04-0.71c0.24-0.34,0.36-0.7,0.35-1.1c0-0.4-0.18-1.08-0.54-2.05c-0.44-1.18-0.66-2.02-0.65-2.51
				c0.01-0.49,0.18-0.96,0.49-1.41c0.46-0.65,1.03-1.04,1.71-1.15c0.68-0.12,1.35,0.06,2.01,0.52c0.32,0.22,0.62,0.51,0.9,0.87
				c0.28,0.36,0.54,0.79,0.8,1.3l-1.2,1.71l-0.47-0.33c0.34-0.67,0.48-1.25,0.42-1.77c-0.07-0.51-0.33-0.93-0.8-1.26
				c-0.38-0.26-0.75-0.36-1.14-0.32c-0.39,0.05-0.7,0.24-0.94,0.58c-0.13,0.19-0.23,0.39-0.28,0.6c-0.05,0.21-0.05,0.42-0.01,0.64
				c0.06,0.34,0.25,0.94,0.58,1.81c0.17,0.46,0.3,0.83,0.4,1.08c0.24,0.7,0.36,1.28,0.33,1.75c-0.02,0.47-0.18,0.9-0.46,1.31
				c-0.51,0.73-1.16,1.16-1.93,1.29c-0.77,0.12-1.54-0.08-2.31-0.61c-0.41-0.28-0.76-0.62-1.05-1
				C126.2,26.48,125.97,26.04,125.79,25.54 M134.69,28.2c-0.71,0.76-1.16,1.49-1.35,2.19c-0.2,0.7-0.1,1.23,0.28,1.59
				c0.36,0.34,0.78,0.45,1.24,0.33c0.47-0.12,0.97-0.46,1.5-1.04c0.71-0.76,1.16-1.49,1.35-2.18c0.19-0.69,0.09-1.22-0.31-1.59
				c-0.35-0.33-0.76-0.43-1.23-0.31C135.7,27.31,135.21,27.65,134.69,28.2 M133.14,32.3c-0.63-0.59-0.93-1.32-0.91-2.2
				c0.03-0.88,0.38-1.68,1.05-2.4c0.7-0.75,1.49-1.17,2.35-1.26c0.87-0.09,1.63,0.16,2.27,0.76c0.63,0.59,0.93,1.32,0.9,2.2
				c-0.03,0.88-0.39,1.69-1.07,2.42c-0.69,0.74-1.47,1.16-2.33,1.25C134.54,33.15,133.78,32.9,133.14,32.3 M140.86,38.14
				c-0.64,0.08-1.21,0.04-1.71-0.11c-0.5-0.15-0.9-0.41-1.22-0.77c-0.54-0.62-0.74-1.32-0.59-2.11c0.14-0.79,0.61-1.52,1.4-2.21
				c0.78-0.67,1.61-1,2.51-0.99c0.9,0.01,1.65,0.37,2.26,1.06c0.38,0.44,0.59,0.91,0.63,1.42c0.04,0.5-0.1,0.89-0.4,1.15
				c-0.13,0.12-0.29,0.16-0.48,0.14c-0.19-0.03-0.34-0.12-0.48-0.27c-0.14-0.16-0.12-0.42,0.08-0.77c0.07-0.13,0.13-0.24,0.16-0.31
				c0.09-0.2,0.12-0.41,0.08-0.62c-0.04-0.21-0.13-0.4-0.29-0.58c-0.34-0.39-0.76-0.56-1.27-0.52c-0.51,0.04-1.02,0.29-1.55,0.74
				c-0.62,0.54-1.01,1.13-1.15,1.77c-0.15,0.64-0.02,1.18,0.37,1.64c0.19,0.22,0.43,0.4,0.72,0.54c0.29,0.14,0.61,0.24,0.95,0.28
				L140.86,38.14z M148.39,34.82c0.19-0.14,0.39-0.19,0.62-0.16c0.22,0.03,0.4,0.13,0.53,0.31c0.13,0.18,0.17,0.37,0.13,0.59
				c-0.05,0.22-0.16,0.39-0.35,0.53c-0.18,0.13-0.39,0.18-0.6,0.16c-0.22-0.03-0.39-0.13-0.52-0.31c-0.13-0.18-0.18-0.38-0.14-0.59
				C148.09,35.13,148.21,34.95,148.39,34.82 M145.07,37.41l-0.17-1.01l0.32-0.23l1.6,1.12l0.2,0.28L143,40.47
				c-0.4,0.29-0.63,0.54-0.68,0.74c-0.06,0.21,0.02,0.47,0.21,0.79l-0.51,0.37l-1.9-2.61l0.51-0.37c0.24,0.3,0.47,0.45,0.71,0.46
				c0.23,0.01,0.54-0.12,0.92-0.4L145.07,37.41z M147.35,41.68l1.37,2.37c0.38-0.25,0.63-0.55,0.74-0.89
				c0.11-0.34,0.07-0.68-0.12-1.01c-0.17-0.29-0.43-0.48-0.77-0.56C148.23,41.51,147.82,41.54,147.35,41.68 M146.6,46.93
				c-0.67-0.03-1.22-0.16-1.65-0.38c-0.43-0.22-0.77-0.55-1.02-0.98c-0.43-0.74-0.51-1.5-0.23-2.27c0.28-0.77,0.86-1.41,1.74-1.92
				c0.9-0.52,1.78-0.71,2.66-0.58c0.87,0.13,1.51,0.55,1.93,1.26c0.34,0.59,0.41,1.23,0.21,1.9c-0.2,0.67-0.64,1.24-1.31,1.7
				l-1.8-3.1c-0.15-0.26-0.26-0.42-0.32-0.45c-0.07-0.04-0.16-0.02-0.27,0.05c-0.64,0.37-1.1,0.87-1.36,1.49
				c-0.27,0.62-0.26,1.17,0.02,1.66c0.15,0.26,0.35,0.48,0.61,0.66c0.26,0.19,0.58,0.34,0.96,0.46L146.6,46.93z M147.78,51.66
				c-0.28-0.21-0.52-0.42-0.72-0.64c-0.2-0.22-0.36-0.44-0.49-0.68c-0.21-0.4-0.25-0.75-0.12-1.03c0.14-0.29,0.51-0.59,1.12-0.91
				l3.96-2.1l-0.43-0.81l0.35-0.18c0.23,0.2,0.52,0.38,0.88,0.53c0.35,0.15,0.78,0.28,1.27,0.39l0.15,0.28l-1.1,0.58l0.78,1.46
				l-0.55,0.29l-0.78-1.45l-3.84,2.04c-0.37,0.2-0.59,0.36-0.66,0.51c-0.07,0.15-0.05,0.33,0.07,0.56c0.05,0.08,0.12,0.19,0.22,0.34
				c0.1,0.15,0.24,0.34,0.42,0.57L147.78,51.66z M153.32,50.11l0.55-0.22l1.05,2.6l-0.55,0.22l-0.03-0.07
				c-0.07-0.17-0.16-0.29-0.27-0.36c-0.11-0.07-0.23-0.08-0.35-0.03c-0.11,0.04-0.23,0.12-0.38,0.23c-0.14,0.11-0.29,0.24-0.45,0.4
				l-2.25,2.27l3.12-0.16c0.22-0.01,0.37-0.03,0.48-0.04c0.1-0.01,0.18-0.04,0.24-0.06c0.18-0.07,0.31-0.19,0.38-0.37
				c0.07-0.18,0.08-0.37,0.02-0.57l0.55-0.22l0.9,2.21l-0.55,0.22c-0.16-0.22-0.35-0.39-0.59-0.48c-0.24-0.09-0.57-0.13-1.01-0.12
				l-5.45,0.17c-1.1,0.03-1.89-0.03-2.35-0.18c-0.46-0.15-0.78-0.44-0.95-0.86c-0.13-0.31-0.15-0.59-0.08-0.84
				c0.07-0.25,0.22-0.42,0.45-0.51c0.17-0.07,0.34-0.08,0.52-0.02c0.17,0.06,0.29,0.16,0.35,0.31c0.05,0.12,0.03,0.31-0.06,0.56
				c-0.09,0.25-0.11,0.43-0.06,0.55c0.08,0.19,0.27,0.33,0.59,0.4c0.31,0.07,0.72,0.08,1.23,0.03l0.45-0.03l3.79-3.73
				c0.03-0.03,0.08-0.08,0.14-0.13C153.19,50.84,153.39,50.45,153.32,50.11"/>
			<path class="st2" d="M57.28,130.12c0,0.21-0.05,0.35-0.16,0.43c-0.11,0.09-0.27,0.07-0.48-0.04c-0.07-0.04-0.16-0.12-0.25-0.24
				c-0.09-0.12-0.18-0.24-0.26-0.35c-0.08-0.11-0.15-0.22-0.25-0.33c-0.09-0.1-0.2-0.19-0.31-0.25c-0.57-0.31-1.3-0.54-2.19-0.7
				c-0.44-0.08-0.86-0.1-1.24-0.09c-0.38,0.01-0.76,0.03-1.13,0.1c-0.37,0.06-0.72,0.18-1.05,0.33c-0.33,0.15-0.62,0.34-0.88,0.53
				c-0.23,0.17-0.43,0.44-0.55,0.82c-0.13,0.38-0.18,0.79-0.18,1.24c0,0.21,0.11,0.51,0.32,0.88c0.21,0.38,0.44,0.68,0.67,0.89
				c0.28,0.26,0.62,0.51,1,0.77c0.29,0.19,0.6,0.36,0.93,0.5c0.34,0.15,0.66,0.25,0.99,0.32c0.34,0.07,0.65,0.11,0.96,0.13
				c0.32,0.02,0.6,0.02,0.85-0.01c0.1-0.01,0.19-0.04,0.3-0.08c0.1-0.04,0.21-0.09,0.31-0.16c0.11-0.08,0.21-0.14,0.28-0.22
				c0.07-0.08,0.13-0.15,0.18-0.22c0.03-0.04,0.05-0.08,0.05-0.15c0-0.07-0.01-0.16-0.05-0.28c-0.03-0.12-0.05-0.21-0.05-0.28
				c0-0.17,0.21-0.14,0.63,0.09c0.13,0.07,0.32,0.27,0.57,0.6c0.26,0.34,0.39,0.55,0.39,0.66c0,0.01-0.14,0.23-0.43,0.64
				c-0.14,0.21-0.25,0.37-0.33,0.48c-0.07,0.12-0.12,0.18-0.14,0.21c-0.08,0.14-0.16,0.29-0.24,0.47c-0.08,0.18-0.15,0.39-0.23,0.62
				c-0.16,0.45-0.24,0.79-0.24,1.02c0,0.05,0,0.1,0.02,0.16c0.02,0.06,0.05,0.11,0.07,0.17c0.02,0.05,0.05,0.1,0.07,0.14
				c0.03,0.05,0.04,0.07,0.04,0.08c0,0.11-0.02,0.2-0.06,0.26c-0.04,0.07-0.09,0.13-0.15,0.16c-0.06,0.04-0.15,0.05-0.25,0.04
				c-0.09-0.01-0.19-0.05-0.3-0.11c-0.24-0.14-0.4-0.32-0.48-0.53c-0.08-0.21-0.13-0.46-0.13-0.73c0-0.07,0.01-0.14,0.01-0.21
				c0.01-0.06,0.01-0.13,0.03-0.19c0.02-0.12,0.06-0.26,0.1-0.41c0.02-0.07,0.05-0.13,0.06-0.19c0.02-0.06,0.03-0.1,0.05-0.14
				c0.06-0.22,0.09-0.38,0.09-0.47c0-0.04-0.01-0.07-0.03-0.08c-0.09-0.05-0.4-0.11-0.9-0.16c-0.25-0.03-0.46-0.06-0.62-0.08
				c-0.15-0.02-0.25-0.03-0.31-0.04c-0.8-0.17-1.55-0.5-2.26-0.97c-0.45-0.3-0.94-0.7-1.44-1.24c-0.51-0.55-0.94-1.14-1.29-1.73
				c-0.35-0.61-0.53-1.14-0.53-1.6c0-0.68,0.15-1.25,0.46-1.73c0.31-0.48,0.79-0.84,1.42-1.12c0.56-0.25,1.09-0.44,1.61-0.53
				c0.51-0.09,1.14-0.08,1.88,0.01c0.13,0.01,0.25,0.02,0.41,0.05c0.16,0.02,0.32,0.06,0.51,0.1c0.36,0.08,0.74,0.18,1.11,0.3
				c0.36,0.12,0.71,0.23,1.01,0.35c0.2,0.08,0.5,0.24,0.89,0.44c0.14,0.08,0.28,0.17,0.43,0.31c0.13,0.13,0.26,0.27,0.36,0.44
				c0.1,0.16,0.19,0.32,0.25,0.49C57.26,129.84,57.28,129.98,57.28,130.12 M68.24,138.4c0,0.08-0.02,0.15-0.05,0.22
				c-0.04,0.06-0.08,0.13-0.14,0.19c-0.05,0.06-0.11,0.11-0.18,0.15c-0.07,0.04-0.13,0.07-0.2,0.09c-0.16,0.04-0.39,0.07-0.69,0.05
				c-0.29-0.02-0.65-0.1-1.09-0.25c-0.36-0.13-0.7-0.31-1.05-0.54c-0.36-0.23-0.7-0.51-1.03-0.84c0.11,0.2,0.18,0.38,0.21,0.54
				c0.03,0.15,0.04,0.34,0.04,0.54c0,0.36-0.09,0.7-0.27,1.04c-0.18,0.34-0.41,0.64-0.7,0.87c-0.28,0.23-0.58,0.39-0.9,0.49
				c-0.18,0.05-0.38,0.09-0.59,0.09c-0.22,0.01-0.44-0.01-0.67-0.05c-0.24-0.04-0.48-0.1-0.74-0.19c-0.25-0.09-0.5-0.2-0.76-0.33
				c-0.17-0.08-0.35-0.23-0.52-0.42c-0.17-0.2-0.32-0.41-0.45-0.64c-0.13-0.23-0.24-0.46-0.33-0.69c-0.08-0.23-0.12-0.41-0.12-0.57
				c0-0.37,0.05-0.7,0.14-0.99c0.1-0.29,0.23-0.56,0.4-0.79c0.17-0.24,0.37-0.45,0.59-0.65c0.22-0.2,0.45-0.39,0.7-0.57
				c0.14-0.1,0.29-0.18,0.47-0.26c0.18-0.08,0.36-0.15,0.55-0.19c0.19-0.04,0.38-0.07,0.58-0.06c0.2,0,0.39,0.05,0.56,0.13
				c0.16,0.07,0.28,0.14,0.38,0.23c0.11,0.09,0.21,0.19,0.3,0.3c0.09,0.12,0.19,0.25,0.29,0.41c0.1,0.16,0.21,0.33,0.34,0.52
				c0.04,0.06,0.16,0.16,0.35,0.32c0.18,0.15,0.41,0.31,0.66,0.49c0.25,0.17,0.52,0.34,0.8,0.51c0.28,0.17,0.54,0.29,0.76,0.38
				c0.24,0.09,0.44,0.15,0.64,0.2c0.19,0.05,0.38,0.08,0.56,0.11c0.18,0.03,0.36,0.03,0.54,0.03c0.18,0,0.37-0.01,0.58-0.04
				C68.24,138.28,68.24,138.35,68.24,138.4 M63.11,138.17c0-0.13-0.01-0.28-0.03-0.45c-0.02-0.17-0.07-0.34-0.13-0.51
				c-0.06-0.17-0.13-0.32-0.23-0.45c-0.09-0.13-0.21-0.22-0.34-0.26c-0.21-0.17-0.38-0.33-0.53-0.49c-0.14-0.15-0.24-0.24-0.32-0.27
				c-0.05-0.02-0.11-0.03-0.17-0.03c-0.06,0.01-0.13,0.03-0.2,0.06c-0.07,0.03-0.14,0.07-0.21,0.12c-0.07,0.05-0.14,0.1-0.21,0.16
				c-0.14,0.12-0.27,0.23-0.38,0.32c-0.11,0.1-0.24,0.18-0.34,0.27c-0.1,0.1-0.2,0.19-0.3,0.31c-0.09,0.11-0.19,0.24-0.29,0.39
				c-0.04,0.06-0.08,0.14-0.11,0.24c-0.03,0.1-0.06,0.2-0.08,0.31c-0.02,0.11-0.04,0.23-0.05,0.34c-0.01,0.12-0.01,0.23-0.01,0.32
				c0,0.06,0.02,0.14,0.06,0.24c0.04,0.11,0.1,0.22,0.16,0.33c0.06,0.11,0.14,0.22,0.23,0.32c0.09,0.1,0.17,0.16,0.25,0.2
				c0.24,0.11,0.43,0.2,0.6,0.25c0.16,0.05,0.32,0.08,0.45,0.09c0.14,0.01,0.28,0,0.42-0.03c0.15-0.03,0.31-0.07,0.49-0.14
				c0.09-0.03,0.19-0.07,0.27-0.13c0.09-0.05,0.18-0.1,0.27-0.17c0.08-0.06,0.17-0.13,0.25-0.2c0.08-0.07,0.15-0.15,0.22-0.23
				c0.04-0.05,0.09-0.12,0.12-0.2c0.03-0.09,0.05-0.17,0.07-0.27c0.02-0.09,0.03-0.17,0.03-0.26
				C63.1,138.26,63.11,138.21,63.11,138.17 M76.39,140.49c0,0.08-0.02,0.15-0.05,0.23c-0.04,0.07-0.08,0.14-0.14,0.21
				c-0.05,0.06-0.12,0.12-0.18,0.17c-0.07,0.05-0.14,0.1-0.2,0.12c-0.16,0.07-0.39,0.12-0.69,0.14c-0.29,0.02-0.66-0.01-1.1-0.12
				c-0.35-0.08-0.7-0.21-1.05-0.39c-0.35-0.18-0.69-0.41-1.02-0.69c0.11,0.18,0.18,0.35,0.21,0.51c0.03,0.15,0.05,0.33,0.05,0.53
				c0,0.36-0.1,0.72-0.28,1.08c-0.18,0.37-0.4,0.69-0.69,0.96c-0.29,0.27-0.59,0.47-0.91,0.62c-0.17,0.08-0.37,0.14-0.59,0.18
				c-0.21,0.04-0.43,0.06-0.66,0.05c-0.24-0.01-0.48-0.04-0.74-0.1c-0.25-0.05-0.51-0.13-0.76-0.21c-0.18-0.06-0.35-0.18-0.53-0.35
				c-0.16-0.17-0.32-0.36-0.45-0.57c-0.13-0.21-0.24-0.42-0.32-0.63c-0.08-0.21-0.12-0.4-0.12-0.55c0-0.37,0.05-0.71,0.15-1.01
				c0.1-0.31,0.23-0.59,0.4-0.85c0.17-0.26,0.36-0.5,0.58-0.73c0.22-0.23,0.46-0.46,0.71-0.67c0.14-0.12,0.29-0.24,0.46-0.34
				c0.18-0.1,0.36-0.18,0.55-0.26c0.2-0.07,0.39-0.12,0.59-0.14c0.2-0.02,0.38-0.01,0.56,0.04c0.15,0.04,0.27,0.1,0.38,0.17
				c0.1,0.07,0.2,0.15,0.3,0.26c0.09,0.1,0.19,0.22,0.29,0.37c0.09,0.14,0.2,0.3,0.34,0.48c0.04,0.05,0.15,0.15,0.35,0.28
				c0.18,0.12,0.4,0.26,0.65,0.39c0.25,0.14,0.53,0.27,0.81,0.4c0.28,0.13,0.53,0.21,0.76,0.27c0.23,0.06,0.44,0.1,0.63,0.12
				c0.2,0.03,0.38,0.03,0.56,0.03c0.18,0,0.36-0.01,0.54-0.04c0.17-0.03,0.37-0.07,0.57-0.12
				C76.38,140.38,76.39,140.44,76.39,140.49 M71.25,140.94c0.01-0.12-0.01-0.27-0.03-0.44c-0.02-0.16-0.06-0.33-0.12-0.49
				c-0.06-0.16-0.14-0.3-0.23-0.42c-0.09-0.12-0.21-0.19-0.34-0.21c-0.22-0.15-0.39-0.28-0.53-0.41c-0.13-0.13-0.24-0.21-0.32-0.23
				c-0.06-0.02-0.11-0.02-0.18,0c-0.06,0.01-0.13,0.04-0.2,0.08c-0.06,0.04-0.14,0.09-0.21,0.15c-0.07,0.06-0.14,0.12-0.21,0.19
				c-0.14,0.13-0.26,0.26-0.38,0.36c-0.12,0.11-0.23,0.22-0.33,0.32c-0.11,0.11-0.2,0.23-0.3,0.35c-0.1,0.13-0.19,0.27-0.29,0.44
				c-0.04,0.06-0.08,0.15-0.11,0.26c-0.03,0.1-0.06,0.21-0.08,0.32c-0.02,0.11-0.04,0.23-0.05,0.35s-0.02,0.22-0.02,0.32
				c0,0.06,0.02,0.14,0.06,0.24c0.05,0.1,0.1,0.2,0.16,0.3c0.06,0.1,0.14,0.19,0.23,0.28c0.08,0.08,0.16,0.13,0.24,0.16
				c0.24,0.08,0.44,0.14,0.6,0.17c0.17,0.04,0.33,0.05,0.46,0.03c0.14-0.01,0.28-0.04,0.42-0.09c0.14-0.05,0.31-0.12,0.5-0.21
				c0.09-0.04,0.18-0.1,0.27-0.16c0.09-0.06,0.18-0.14,0.26-0.21c0.09-0.08,0.17-0.16,0.25-0.24c0.08-0.09,0.15-0.17,0.23-0.25
				c0.05-0.05,0.09-0.13,0.12-0.22c0.03-0.1,0.05-0.18,0.07-0.28c0.02-0.09,0.03-0.18,0.04-0.26
				C71.25,141.03,71.25,140.97,71.25,140.94 M85.8,142.73c0,0.12-0.03,0.22-0.08,0.33c-0.1,0.19-0.34,0.48-0.7,0.87
				c-0.17,0.19-0.36,0.38-0.55,0.56c-0.2,0.19-0.4,0.37-0.63,0.55c-0.22,0.19-0.43,0.35-0.64,0.5c-0.21,0.15-0.41,0.28-0.6,0.38
				c-0.39,0.22-0.71,0.31-0.94,0.28c-0.09-0.01-0.21-0.06-0.34-0.14c-0.29-0.17-0.52-0.44-0.69-0.81c-0.17-0.37-0.29-0.75-0.35-1.14
				c-0.07-0.39-0.13-0.83-0.17-1.31c-0.57,0.97-1.31,1.81-2.22,2.48c-0.92,0.67-1.87,0.9-2.85,0.7c-0.27-0.06-0.48-0.25-0.62-0.56
				c-0.14-0.32-0.22-0.63-0.22-0.94c0-0.41,0.04-0.71,0.11-0.89c0.2-0.54,0.4-1.05,0.65-1.51c0.25-0.46,0.56-0.91,0.92-1.32
				c0.23-0.28,0.5-0.54,0.8-0.8c0.3-0.26,0.59-0.42,0.85-0.52c0.33-0.12,0.81-0.13,1.42-0.04c0.22,0.03,0.4,0.18,0.55,0.44
				c0.15,0.26,0.26,0.56,0.34,0.88c0.08,0.35,0.12,0.61,0.12,0.8c0.07-0.21,0.14-0.43,0.19-0.65c0.05-0.22,0.1-0.45,0.14-0.69
				c0.04-0.24,0.07-0.5,0.11-0.77c0.04-0.27,0.07-0.55,0.09-0.86c0.01-0.08,0.02-0.18,0.04-0.31c0.01-0.13,0.02-0.28,0.03-0.45
				c0.02-0.36,0.05-0.65,0.08-0.89c0.03-0.24,0.07-0.39,0.12-0.46c0.12-0.17,0.3-0.25,0.57-0.21c0.14,0.02,0.27,0.06,0.41,0.14
				c0.14,0.08,0.21,0.16,0.21,0.26c0,0.06-0.01,0.15-0.03,0.27c-0.02,0.12-0.04,0.28-0.08,0.47c-0.04,0.19-0.09,0.43-0.15,0.71
				c-0.06,0.28-0.13,0.62-0.2,1.01c-0.01,0.04-0.02,0.13-0.04,0.27c-0.02,0.13-0.05,0.28-0.07,0.43c-0.03,0.15-0.05,0.29-0.07,0.42
				c-0.02,0.13-0.04,0.21-0.05,0.24c-0.07,0.36-0.11,0.71-0.15,1.02c-0.04,0.32-0.06,0.65-0.06,0.98c0,0.27,0.01,0.58,0.02,0.94
				c0.01,0.36,0.06,0.72,0.11,1.07c0.06,0.35,0.14,0.53,0.24,0.55c0.38,0.05,0.83-0.07,1.36-0.35c0.54-0.29,1.04-0.64,1.53-1.05
				s0.93-0.8,1.31-1.17c0.03-0.03,0.06-0.04,0.07-0.04c0.05,0.01,0.08,0.04,0.1,0.12C85.79,142.58,85.8,142.65,85.8,142.73
				 M79.39,142.45c-0.12-0.05-0.21-0.12-0.27-0.22c-0.07-0.1-0.09-0.21-0.09-0.33c0-0.09,0.01-0.22,0.04-0.4
				c0.03-0.17,0.04-0.31,0.04-0.4c0-0.08-0.02-0.18-0.06-0.28c-0.05-0.11-0.1-0.21-0.17-0.32c-0.07-0.1-0.14-0.2-0.23-0.27
				c-0.08-0.07-0.17-0.12-0.25-0.13c-0.25-0.04-0.57,0.16-0.99,0.6c-0.21,0.22-0.4,0.43-0.58,0.63c-0.18,0.2-0.33,0.41-0.48,0.61
				c-0.16,0.22-0.3,0.42-0.42,0.61c-0.11,0.19-0.2,0.36-0.28,0.51c-0.27,0.53-0.41,0.96-0.41,1.29c0,0.42,0.14,0.66,0.43,0.72
				c0.26,0.05,0.61-0.02,1.06-0.23c0.47-0.22,0.82-0.44,1.07-0.65c0.26-0.23,0.48-0.43,0.65-0.58c0.17-0.16,0.31-0.29,0.42-0.39
				c0.1-0.1,0.19-0.21,0.27-0.34C79.23,142.75,79.3,142.61,79.39,142.45 M103.53,136.36c0,0.25-0.03,0.59-0.09,1.01
				c-0.06,0.43-0.14,0.91-0.25,1.45c-0.11,0.54-0.21,1.04-0.34,1.51c-0.12,0.47-0.24,0.86-0.35,1.21c-0.22,0.69-0.44,1.3-0.64,1.8
				c-0.1,0.26-0.21,0.54-0.34,0.84c-0.13,0.3-0.26,0.63-0.42,0.98c-0.15,0.35-0.28,0.66-0.41,0.96c-0.12,0.28-0.22,0.53-0.31,0.76
				c-0.04,0.08-0.12,0.17-0.25,0.25c-0.13,0.07-0.24,0.12-0.31,0.12c-0.22,0.02-0.42-0.07-0.61-0.27c-0.18-0.2-0.36-0.47-0.53-0.81
				c-0.09-0.17-0.2-0.41-0.34-0.72c-0.14-0.31-0.32-0.69-0.52-1.14c-0.2-0.45-0.39-0.87-0.55-1.24c-0.17-0.37-0.33-0.71-0.47-1.01
				c-0.15,0.22-0.42,0.71-0.81,1.46c-0.2,0.38-0.39,0.75-0.57,1.12c-0.18,0.36-0.37,0.72-0.55,1.08c-0.37,0.71-0.7,1.32-1.01,1.82
				c-0.31,0.5-0.51,0.76-0.61,0.76c-0.22,0-0.41-0.08-0.57-0.27c-0.16-0.18-0.29-0.42-0.41-0.71c-0.06-0.14-0.12-0.32-0.18-0.51
				c-0.06-0.2-0.12-0.43-0.19-0.69c-0.07-0.26-0.13-0.46-0.16-0.6c-0.04-0.14-0.07-0.22-0.07-0.24c-0.18-0.67-0.35-1.41-0.53-2.21
				c-0.19-0.81-0.38-1.7-0.58-2.66c-0.01-0.06-0.04-0.17-0.08-0.32c-0.04-0.15-0.1-0.34-0.16-0.58c-0.13-0.48-0.2-0.82-0.2-1.01
				c0-0.13,0.06-0.25,0.17-0.36c0.11-0.11,0.22-0.17,0.33-0.17c0.11,0,0.24,0.14,0.42,0.41c0.16,0.26,0.31,0.57,0.42,0.94
				c0.04,0.12,0.08,0.29,0.13,0.48c0.05,0.2,0.11,0.45,0.18,0.74c0.07,0.29,0.15,0.63,0.24,1.02c0.09,0.39,0.2,0.83,0.32,1.34
				c0.12,0.5,0.22,0.94,0.32,1.34c0.09,0.39,0.17,0.73,0.24,1.03c0.08,0.29,0.15,0.54,0.21,0.75c0.06,0.2,0.11,0.37,0.15,0.49
				c0.35-0.59,0.65-1.11,0.91-1.55c0.26-0.44,0.47-0.82,0.64-1.12c0.17-0.3,0.32-0.58,0.43-0.81c0.12-0.24,0.23-0.44,0.3-0.62
				c0.08-0.18,0.19-0.42,0.33-0.74c0.14-0.31,0.3-0.71,0.5-1.17c0.02-0.04,0.04-0.09,0.08-0.13c0.04-0.05,0.09-0.09,0.14-0.12
				c0.05-0.04,0.1-0.06,0.15-0.09c0.06-0.03,0.11-0.04,0.16-0.04c0.16-0.01,0.38,0.24,0.62,0.76c0.12,0.25,0.27,0.6,0.46,1.04
				c0.19,0.43,0.43,0.96,0.71,1.58c0.54,1.24,0.91,1.97,1.08,2.18c0.42-0.76,0.8-1.57,1.13-2.41c0.33-0.85,0.6-1.71,0.83-2.59
				c0.23-0.87,0.41-1.68,0.54-2.42c0.12-0.73,0.19-1.4,0.22-2.02c0-0.06,0.05-0.15,0.17-0.28c0.12-0.13,0.22-0.2,0.31-0.22
				c0.22-0.04,0.36,0.03,0.44,0.18C103.48,136.05,103.53,136.2,103.53,136.36 M114.38,138.54c0,0.08-0.02,0.16-0.05,0.26
				c-0.04,0.09-0.08,0.19-0.13,0.27c-0.06,0.1-0.12,0.18-0.19,0.26c-0.07,0.08-0.13,0.16-0.2,0.22c-0.17,0.15-0.39,0.32-0.68,0.48
				c-0.3,0.17-0.66,0.31-1.1,0.43c-0.36,0.1-0.7,0.16-1.05,0.15c-0.35-0.01-0.7-0.06-1.02-0.19c0.11,0.13,0.18,0.27,0.21,0.41
				c0.03,0.14,0.04,0.31,0.04,0.51c0,0.36-0.09,0.77-0.27,1.22c-0.18,0.46-0.41,0.9-0.7,1.32c-0.29,0.42-0.58,0.78-0.9,1.08
				c-0.18,0.17-0.38,0.33-0.59,0.47c-0.22,0.14-0.44,0.27-0.67,0.38c-0.24,0.11-0.48,0.21-0.73,0.29c-0.25,0.08-0.5,0.15-0.76,0.19
				c-0.17,0.03-0.34-0.01-0.52-0.09c-0.17-0.09-0.32-0.2-0.45-0.34c-0.13-0.15-0.24-0.31-0.32-0.48c-0.08-0.18-0.13-0.33-0.13-0.48
				c0-0.37,0.05-0.74,0.15-1.09c0.1-0.36,0.23-0.71,0.4-1.05c0.17-0.35,0.36-0.68,0.59-1.02c0.22-0.34,0.45-0.68,0.7-1.04
				c0.14-0.19,0.29-0.39,0.47-0.59c0.18-0.2,0.36-0.38,0.55-0.55c0.19-0.17,0.38-0.31,0.58-0.43c0.2-0.12,0.39-0.2,0.57-0.24
				c0.15-0.03,0.27-0.03,0.37-0.01c0.11,0.02,0.21,0.04,0.3,0.1c0.09,0.06,0.19,0.12,0.29,0.22c0.1,0.09,0.2,0.2,0.33,0.3
				c0.04,0.04,0.15,0.06,0.34,0.1c0.18,0.03,0.41,0.06,0.66,0.07c0.26,0.01,0.52,0.02,0.8,0c0.28-0.01,0.54-0.07,0.76-0.13
				c0.24-0.07,0.45-0.14,0.64-0.21c0.19-0.07,0.38-0.15,0.56-0.24c0.18-0.09,0.36-0.19,0.54-0.31c0.18-0.12,0.37-0.25,0.58-0.41
				C114.38,138.43,114.38,138.49,114.38,138.54 M109.25,141.58c0-0.13-0.01-0.27-0.03-0.43c-0.02-0.16-0.07-0.3-0.13-0.43
				c-0.06-0.13-0.13-0.23-0.23-0.3c-0.09-0.07-0.21-0.08-0.35-0.02c-0.21-0.05-0.38-0.1-0.52-0.16c-0.14-0.06-0.24-0.09-0.32-0.07
				c-0.04,0.01-0.11,0.04-0.17,0.09c-0.06,0.05-0.13,0.11-0.2,0.18c-0.07,0.07-0.14,0.16-0.21,0.25c-0.07,0.1-0.14,0.2-0.21,0.29
				c-0.14,0.21-0.27,0.4-0.38,0.56c-0.11,0.17-0.24,0.34-0.34,0.5c-0.1,0.17-0.2,0.33-0.3,0.52c-0.09,0.17-0.19,0.37-0.29,0.58
				c-0.04,0.08-0.08,0.19-0.11,0.31c-0.03,0.12-0.06,0.24-0.08,0.36c-0.02,0.12-0.04,0.25-0.05,0.38c-0.01,0.12-0.01,0.23-0.01,0.32
				c0,0.06,0.01,0.13,0.05,0.21c0.04,0.08,0.1,0.15,0.16,0.22c0.07,0.07,0.14,0.13,0.23,0.16c0.09,0.04,0.17,0.05,0.25,0.03
				c0.24-0.05,0.44-0.1,0.6-0.15c0.16-0.05,0.32-0.12,0.45-0.2c0.15-0.08,0.28-0.18,0.43-0.3c0.15-0.12,0.31-0.28,0.49-0.46
				c0.09-0.09,0.19-0.19,0.27-0.3c0.09-0.11,0.19-0.22,0.27-0.34c0.09-0.12,0.17-0.25,0.25-0.37c0.08-0.13,0.15-0.25,0.22-0.38
				c0.04-0.08,0.09-0.17,0.12-0.28c0.03-0.11,0.05-0.22,0.07-0.32c0.02-0.1,0.03-0.2,0.04-0.28
				C109.24,141.68,109.25,141.62,109.25,141.58 M119.52,136.9c0,0.03,0,0.07,0,0.12c-0.01,0.05-0.02,0.11-0.04,0.17
				c-0.02,0.06-0.04,0.12-0.06,0.16c-0.03,0.06-0.06,0.09-0.1,0.1c-0.03,0.01-0.07,0.03-0.15,0.05c-0.06,0.03-0.13,0.05-0.2,0.07
				c-0.07,0.02-0.14,0.04-0.2,0.07c-0.06,0.02-0.12,0.04-0.13,0.05c-0.88,0.39-1.61,0.99-2.2,1.78c-0.57,0.76-1.06,1.69-1.48,2.79
				c-0.08,0.22-0.16,0.45-0.24,0.69c-0.08,0.23-0.15,0.48-0.22,0.74c-0.04,0.14-0.06,0.26-0.07,0.37c-0.01,0.1-0.05,0.21-0.08,0.34
				c-0.01,0.04-0.05,0.08-0.12,0.14c-0.07,0.06-0.15,0.11-0.23,0.16c-0.09,0.06-0.17,0.1-0.24,0.14c-0.08,0.04-0.14,0.07-0.16,0.08
				c-0.32,0.11-0.49-0.17-0.54-0.83c-0.01-0.18-0.02-0.34-0.02-0.49c0.01-0.15,0.01-0.29,0.02-0.44c0.01-0.14,0.02-0.29,0.04-0.45
				c0.01-0.16,0.04-0.34,0.05-0.54c0.03-0.24,0.05-0.53,0.08-0.85c0.03-0.32,0.07-0.65,0.11-0.97c0.04-0.33,0.09-0.65,0.14-0.94
				c0.05-0.3,0.1-0.55,0.15-0.76c0.05-0.23,0.12-0.41,0.21-0.54c0.09-0.13,0.22-0.22,0.39-0.29c0.04-0.02,0.1-0.02,0.15-0.01
				c0.05,0.01,0.1,0.03,0.14,0.06c0.04,0.03,0.08,0.05,0.12,0.09c0.03,0.03,0.04,0.07,0.04,0.11c0.01,0.11,0.01,0.24,0,0.37
				c-0.01,0.14-0.03,0.28-0.05,0.44c-0.02,0.15-0.05,0.3-0.08,0.46c-0.03,0.16-0.06,0.31-0.09,0.45c-0.07,0.28-0.12,0.52-0.15,0.72
				c-0.03,0.2-0.06,0.39-0.08,0.57c-0.02,0.18-0.05,0.37-0.07,0.58c-0.02,0.2-0.05,0.46-0.08,0.76c0.07-0.19,0.15-0.36,0.2-0.5
				c0.06-0.14,0.11-0.27,0.15-0.38c0.04-0.11,0.09-0.2,0.13-0.29c0.04-0.09,0.08-0.18,0.13-0.28c0.04-0.09,0.09-0.19,0.15-0.31
				c0.06-0.11,0.12-0.25,0.2-0.42c0.32-0.64,0.67-1.19,1.03-1.65c0.36-0.46,0.72-0.81,1.06-1.09c0.39-0.32,0.7-0.55,0.94-0.66
				c0.12-0.05,0.26-0.1,0.43-0.15c0.17-0.05,0.33-0.07,0.48-0.08c0.15-0.01,0.28,0,0.39,0.04
				C119.47,136.71,119.52,136.79,119.52,136.9 M130.94,131.93c0,0.02-0.04,0.14-0.13,0.34c-0.09,0.21-0.21,0.48-0.36,0.81
				c-0.15,0.32-0.34,0.7-0.54,1.12c-0.21,0.42-0.45,0.86-0.7,1.31c-0.25,0.44-0.51,0.9-0.8,1.35c-0.28,0.44-0.57,0.85-0.87,1.24
				c-0.3,0.39-0.6,0.73-0.9,1.03c-0.3,0.3-0.6,0.52-0.89,0.68c-0.19,0.1-0.36,0.16-0.54,0.19c-0.16,0.03-0.32,0.04-0.47,0.02
				c-0.15-0.02-0.29-0.05-0.43-0.1c-0.13-0.05-0.26-0.11-0.39-0.18c-0.17-0.1-0.32-0.2-0.47-0.31c-0.15-0.11-0.29-0.21-0.43-0.3
				c-0.14-0.09-0.26-0.17-0.39-0.24c-0.13-0.07-0.25-0.11-0.38-0.13c-0.01,0.01-0.04,0.05-0.08,0.12c-0.04,0.06-0.09,0.14-0.15,0.22
				c-0.05,0.08-0.11,0.16-0.16,0.24c-0.06,0.08-0.09,0.14-0.12,0.18c-0.12,0.19-0.22,0.37-0.3,0.52c-0.07,0.14-0.12,0.27-0.14,0.37
				c-0.02,0.09-0.04,0.19-0.05,0.29c0,0.11-0.01,0.21-0.01,0.32c0,0.18-0.01,0.34-0.04,0.47c-0.02,0.14-0.06,0.25-0.12,0.34
				c-0.06,0.1-0.12,0.18-0.21,0.25c-0.09,0.07-0.2,0.13-0.34,0.19c-0.16,0.07-0.27,0.08-0.31,0.02c-0.04-0.06-0.07-0.18-0.07-0.36
				c0-0.13,0.01-0.27,0.03-0.42c0.02-0.16,0.04-0.31,0.06-0.47c0.03-0.16,0.04-0.32,0.07-0.48c0.03-0.16,0.04-0.31,0.06-0.45
				c0.05-0.39,0.11-0.77,0.15-1.14c0.05-0.37,0.09-0.73,0.14-1.1c0.04-0.37,0.09-0.74,0.13-1.11c0.04-0.37,0.08-0.76,0.13-1.15
				c0.07-0.62,0.13-1.25,0.17-1.88c0.04-0.63,0.08-1.21,0.1-1.74c0-0.09,0.01-0.2,0.04-0.3c0.03-0.11,0.08-0.22,0.14-0.32
				c0.06-0.11,0.14-0.21,0.22-0.29c0.08-0.09,0.17-0.16,0.28-0.2c0.14-0.06,0.25-0.09,0.34-0.08c0.08,0.01,0.14,0.04,0.19,0.08
				c0.05,0.04,0.08,0.1,0.09,0.17c0.01,0.06,0.03,0.12,0.03,0.17c0,0.08-0.01,0.2-0.04,0.36c-0.02,0.17-0.05,0.36-0.08,0.56
				c-0.04,0.21-0.08,0.42-0.12,0.65c-0.04,0.22-0.08,0.43-0.12,0.63c-0.04,0.19-0.06,0.35-0.09,0.49c-0.03,0.14-0.04,0.22-0.04,0.26
				c-0.1,0.6-0.19,1.08-0.24,1.45c-0.05,0.36-0.09,0.65-0.11,0.84c-0.07,0.59-0.13,1.09-0.18,1.49c-0.05,0.41-0.09,0.73-0.13,0.98
				c0.19-0.29,0.38-0.59,0.57-0.9c0.2-0.31,0.4-0.63,0.6-0.94c0.2-0.32,0.4-0.65,0.59-0.97c0.2-0.33,0.38-0.65,0.56-0.96
				c0.11-0.2,0.24-0.43,0.39-0.71c0.15-0.27,0.31-0.55,0.48-0.83c0.17-0.28,0.35-0.54,0.54-0.78c0.19-0.24,0.38-0.43,0.57-0.57
				c0.11-0.08,0.21-0.12,0.29-0.13c0.08-0.01,0.14,0.01,0.2,0.04c0.05,0.04,0.09,0.09,0.12,0.15c0.03,0.06,0.04,0.12,0.04,0.18
				c0,0.1-0.06,0.24-0.16,0.43c-0.11,0.19-0.24,0.4-0.4,0.63c-0.16,0.23-0.33,0.46-0.51,0.7c-0.18,0.24-0.34,0.45-0.47,0.64
				c-0.21,0.3-0.4,0.57-0.56,0.81c-0.17,0.25-0.32,0.48-0.46,0.7c-0.14,0.22-0.28,0.44-0.41,0.65c-0.13,0.21-0.25,0.42-0.38,0.64
				c0.15,0.02,0.28,0.07,0.41,0.12c0.13,0.05,0.26,0.11,0.39,0.18c0.13,0.07,0.27,0.15,0.41,0.23c0.14,0.08,0.3,0.16,0.46,0.24
				c0.3,0.14,0.55,0.22,0.77,0.22c0.23-0.01,0.43-0.07,0.6-0.16c0.21-0.11,0.43-0.29,0.66-0.54c0.24-0.26,0.48-0.54,0.74-0.88
				c0.26-0.33,0.51-0.7,0.77-1.1c0.26-0.39,0.5-0.8,0.74-1.21c0.24-0.41,0.47-0.79,0.68-1.18c0.21-0.38,0.39-0.72,0.55-1.01
				c0.16-0.3,0.29-0.54,0.39-0.72c0.1-0.18,0.16-0.28,0.18-0.29c0.04-0.02,0.07-0.03,0.1-0.01c0.03,0.02,0.06,0.04,0.07,0.07
				c0.01,0.04,0.02,0.08,0.03,0.13C130.94,131.85,130.94,131.89,130.94,131.93 M136.89,127.59c0,0.07-0.02,0.17-0.06,0.29
				c-0.04,0.12-0.1,0.25-0.16,0.39c-0.07,0.15-0.15,0.3-0.24,0.46c-0.09,0.17-0.17,0.32-0.26,0.48c-0.07,0.13-0.14,0.26-0.22,0.39
				c-0.08,0.14-0.17,0.29-0.27,0.46c-0.09,0.16-0.21,0.36-0.34,0.59c-0.13,0.22-0.29,0.49-0.46,0.79c-0.16,0.28-0.34,0.57-0.54,0.88
				c-0.2,0.31-0.39,0.61-0.59,0.91c-0.2,0.29-0.4,0.59-0.58,0.85c-0.19,0.28-0.35,0.52-0.49,0.72c-0.32,0.48-0.64,0.95-0.94,1.38
				c-0.3,0.44-0.59,0.84-0.88,1.21c-0.57,0.73-1.02,1.19-1.36,1.39c-0.12,0.07-0.26,0.12-0.4,0.15c-0.15,0.03-0.24,0-0.24-0.1
				c0-0.3,0.1-0.6,0.33-0.9c0.22-0.3,0.56-0.67,1.04-1.14c0.46-0.46,0.8-0.84,1.03-1.16c0.23-0.32,0.35-0.64,0.35-0.94
				c0-0.15-0.17-0.34-0.48-0.61c-0.16-0.13-0.29-0.26-0.42-0.39c-0.12-0.12-0.22-0.24-0.31-0.34c-0.18-0.21-0.26-0.5-0.26-0.85
				c0-0.31,0.07-0.67,0.17-1.07c0.06-0.23,0.14-0.47,0.26-0.74c0.13-0.27,0.26-0.52,0.4-0.76c0.14-0.24,0.28-0.44,0.43-0.64
				c0.15-0.18,0.27-0.31,0.38-0.38c0.4-0.26,0.61-0.16,0.61,0.32c0,0.18-0.07,0.41-0.2,0.67c-0.06,0.12-0.15,0.26-0.24,0.41
				c-0.09,0.15-0.2,0.32-0.32,0.5c-0.12,0.17-0.21,0.31-0.29,0.44c-0.08,0.13-0.14,0.23-0.2,0.32c0,0.24,0.07,0.47,0.23,0.69
				c0.07,0.1,0.16,0.22,0.26,0.33c0.1,0.12,0.22,0.23,0.35,0.36c0.13,0.12,0.25,0.24,0.34,0.34c0.09,0.11,0.16,0.19,0.21,0.23
				c0,0.02,0.03,0.01,0.07-0.02c0.06-0.04,0.17-0.16,0.33-0.36c0.16-0.19,0.34-0.45,0.56-0.75c0.22-0.3,0.46-0.64,0.72-1.03
				c0.26-0.39,0.51-0.8,0.76-1.21c0.27-0.44,0.49-0.8,0.66-1.1c0.17-0.3,0.34-0.58,0.5-0.86c0.15-0.26,0.27-0.47,0.35-0.61
				c0.07-0.14,0.12-0.21,0.13-0.22c0.03-0.03,0.07-0.03,0.1-0.03c0.04,0,0.06,0.02,0.09,0.04c0.03,0.02,0.04,0.06,0.05,0.1
				C136.88,127.51,136.89,127.54,136.89,127.59"/>
			<path class="st2" d="M181.32,44.15l8.5,25.11l8.53-25.29c0.45-1.33,0.78-2.25,1-2.77c0.22-0.52,0.59-0.99,1.1-1.4
				c0.51-0.42,1.21-0.63,2.1-0.63c0.65,0,1.25,0.16,1.81,0.48c0.56,0.32,0.99,0.75,1.31,1.29c0.32,0.54,0.47,1.08,0.47,1.62
				c0,0.38-0.05,0.78-0.15,1.21c-0.1,0.43-0.23,0.86-0.38,1.28c-0.15,0.42-0.31,0.85-0.46,1.29l-9.1,24.47
				c-0.32,0.94-0.65,1.83-0.97,2.67c-0.32,0.84-0.7,1.58-1.13,2.22c-0.43,0.64-0.99,1.16-1.7,1.57s-1.58,0.61-2.6,0.61
				c-1.02,0-1.89-0.2-2.6-0.6c-0.71-0.4-1.28-0.93-1.72-1.58c-0.44-0.65-0.82-1.4-1.14-2.23c-0.32-0.83-0.65-1.72-0.97-2.66
				l-8.94-24.26c-0.15-0.44-0.31-0.88-0.47-1.3c-0.16-0.42-0.3-0.88-0.41-1.38c-0.11-0.49-0.17-0.91-0.17-1.25
				c0-0.87,0.35-1.66,1.05-2.38c0.7-0.72,1.58-1.07,2.64-1.07c1.3,0,2.22,0.39,2.75,1.19C180.2,41.15,180.76,42.41,181.32,44.15"/>
			<path class="st2" d="M217.16,53.5v20.15c0,1.4-0.33,2.45-1,3.17c-0.67,0.72-1.51,1.07-2.54,1.07c-1.02,0-1.86-0.37-2.5-1.1
				c-0.64-0.73-0.96-1.78-0.96-3.14V53.7c0-1.38,0.32-2.42,0.96-3.12c0.64-0.7,1.47-1.05,2.5-1.05c1.03,0,1.87,0.35,2.54,1.05
				C216.82,51.28,217.16,52.25,217.16,53.5 M213.7,46.29c-0.97,0-1.81-0.3-2.5-0.89c-0.69-0.6-1.04-1.44-1.04-2.53
				c0-0.99,0.35-1.8,1.06-2.44c0.71-0.64,1.53-0.96,2.47-0.96c0.91,0,1.71,0.29,2.41,0.87c0.7,0.58,1.05,1.42,1.05,2.53
				c0,1.07-0.34,1.91-1.03,2.52C215.45,45.99,214.64,46.29,213.7,46.29"/>
			<path class="st2" d="M229.84,53.4v0.84c1.23-1.62,2.57-2.8,4.03-3.56c1.46-0.76,3.14-1.14,5.04-1.14c1.84,0,3.49,0.4,4.94,1.2
				c1.45,0.8,2.54,1.93,3.25,3.4c0.46,0.85,0.76,1.77,0.9,2.76c0.14,0.99,0.21,2.25,0.21,3.78v12.97c0,1.4-0.32,2.45-0.96,3.17
				c-0.64,0.72-1.47,1.07-2.5,1.07c-1.04,0-1.89-0.37-2.54-1.1c-0.65-0.73-0.97-1.78-0.97-3.14V62.03c0-2.3-0.32-4.06-0.96-5.27
				c-0.64-1.22-1.92-1.83-3.83-1.83c-1.25,0-2.38,0.37-3.41,1.11c-1.02,0.74-1.78,1.76-2.25,3.05c-0.34,1.04-0.51,2.98-0.51,5.82
				v8.74c0,1.41-0.33,2.47-0.99,3.18c-0.66,0.71-1.51,1.06-2.55,1.06c-1.01,0-1.84-0.37-2.48-1.1c-0.65-0.73-0.97-1.78-0.97-3.14
				V53.5c0-1.33,0.29-2.32,0.87-2.98c0.58-0.65,1.37-0.98,2.38-0.98c0.61,0,1.17,0.15,1.67,0.43c0.49,0.29,0.89,0.72,1.19,1.3
				C229.69,51.85,229.84,52.56,229.84,53.4"/>
			<path class="st2" d="M260.7,53.4v0.84c1.23-1.62,2.57-2.8,4.03-3.56c1.46-0.76,3.14-1.14,5.04-1.14c1.84,0,3.49,0.4,4.94,1.2
				c1.45,0.8,2.54,1.93,3.25,3.4c0.46,0.85,0.76,1.77,0.9,2.76c0.14,0.99,0.21,2.25,0.21,3.78v12.97c0,1.4-0.32,2.45-0.96,3.17
				c-0.64,0.72-1.47,1.07-2.5,1.07c-1.04,0-1.89-0.37-2.54-1.1c-0.65-0.73-0.97-1.78-0.97-3.14V62.03c0-2.3-0.32-4.06-0.96-5.27
				c-0.64-1.22-1.92-1.83-3.83-1.83c-1.25,0-2.38,0.37-3.41,1.11c-1.02,0.74-1.78,1.76-2.25,3.05c-0.34,1.04-0.51,2.98-0.51,5.82
				v8.74c0,1.41-0.33,2.47-0.99,3.18c-0.66,0.71-1.51,1.06-2.55,1.06c-1.01,0-1.84-0.37-2.49-1.1c-0.65-0.73-0.97-1.78-0.97-3.14
				V53.5c0-1.33,0.29-2.32,0.87-2.98c0.58-0.65,1.38-0.98,2.38-0.98c0.62,0,1.17,0.15,1.67,0.43c0.5,0.29,0.89,0.72,1.19,1.3
				C260.55,51.85,260.7,52.56,260.7,53.4"/>
			<path class="st2" d="M292.08,53.5v20.15c0,1.4-0.33,2.45-1,3.17c-0.67,0.72-1.51,1.07-2.54,1.07s-1.86-0.37-2.5-1.1
				c-0.64-0.73-0.96-1.78-0.96-3.14V53.7c0-1.38,0.32-2.42,0.96-3.12c0.64-0.7,1.47-1.05,2.5-1.05s1.87,0.35,2.54,1.05
				C291.75,51.28,292.08,52.25,292.08,53.5 M288.63,46.29c-0.97,0-1.81-0.3-2.5-0.89c-0.69-0.6-1.04-1.44-1.04-2.53
				c0-0.99,0.35-1.8,1.06-2.44c0.71-0.64,1.53-0.96,2.47-0.96c0.91,0,1.71,0.29,2.41,0.87c0.7,0.58,1.05,1.42,1.05,2.53
				c0,1.07-0.34,1.91-1.02,2.52C290.38,45.99,289.57,46.29,288.63,46.29"/>
			<path class="st2" d="M304.06,61.47h12.68c-0.17-2.38-0.82-4.17-1.93-5.35c-1.12-1.18-2.59-1.77-4.42-1.77
				c-1.74,0-3.17,0.6-4.29,1.8C304.98,57.34,304.3,59.12,304.06,61.47 M317.74,65.42h-13.68c0.02,1.58,0.34,2.98,0.96,4.19
				c0.62,1.21,1.45,2.12,2.49,2.73c1.03,0.61,2.17,0.92,3.42,0.92c0.84,0,1.6-0.1,2.29-0.29c0.69-0.2,1.36-0.5,2.01-0.92
				c0.65-0.42,1.25-0.86,1.79-1.34c0.55-0.48,1.25-1.13,2.13-1.94c0.36-0.31,0.87-0.46,1.54-0.46c0.72,0,1.3,0.19,1.74,0.59
				c0.44,0.39,0.66,0.95,0.66,1.66c0,0.63-0.25,1.37-0.74,2.21c-0.5,0.84-1.24,1.65-2.24,2.43c-1,0.77-2.25,1.42-3.77,1.93
				c-1.51,0.51-3.25,0.77-5.21,0.77c-4.49,0-7.99-1.28-10.48-3.83c-2.49-2.55-3.74-6.02-3.74-10.39c0-2.06,0.31-3.97,0.92-5.73
				c0.61-1.76,1.51-3.27,2.69-4.53c1.18-1.26,2.63-2.22,4.36-2.9s3.64-1.01,5.74-1.01c2.73,0,5.08,0.58,7.03,1.73
				c1.96,1.15,3.42,2.63,4.39,4.46c0.97,1.82,1.46,3.68,1.46,5.57c0,1.75-0.5,2.89-1.51,3.41
				C320.98,65.17,319.57,65.42,317.74,65.42"/>
			<path class="st2" d="M350.9,68.77c0,1.92-0.47,3.57-1.41,4.94c-0.94,1.37-2.33,2.41-4.16,3.12c-1.83,0.7-4.07,1.06-6.7,1.06
				c-2.51,0-4.66-0.38-6.46-1.15c-1.79-0.77-3.12-1.72-3.97-2.87c-0.85-1.15-1.28-2.3-1.28-3.46c0-0.77,0.27-1.42,0.82-1.97
				c0.55-0.54,1.24-0.82,2.07-0.82c0.73,0,1.3,0.18,1.69,0.54c0.39,0.36,0.77,0.86,1.13,1.51c0.72,1.24,1.58,2.17,2.57,2.78
				c1,0.61,2.36,0.92,4.09,0.92c1.4,0,2.55-0.31,3.44-0.93c0.9-0.62,1.35-1.33,1.35-2.13c0-1.23-0.47-2.12-1.4-2.68
				c-0.93-0.56-2.46-1.1-4.6-1.61c-2.41-0.6-4.37-1.22-5.88-1.88c-1.51-0.65-2.72-1.52-3.63-2.59c-0.9-1.07-1.36-2.39-1.36-3.96
				c0-1.4,0.42-2.72,1.26-3.96c0.84-1.24,2.07-2.23,3.7-2.98c1.63-0.74,3.6-1.11,5.9-1.11c1.81,0,3.44,0.19,4.88,0.56
				c1.44,0.38,2.65,0.88,3.61,1.51c0.97,0.63,1.7,1.33,2.2,2.09c0.5,0.77,0.76,1.52,0.76,2.25c0,0.8-0.27,1.46-0.81,1.97
				c-0.54,0.51-1.3,0.77-2.29,0.77c-0.72,0-1.33-0.2-1.83-0.61c-0.5-0.41-1.08-1.02-1.73-1.84c-0.53-0.68-1.15-1.23-1.87-1.64
				c-0.72-0.41-1.69-0.61-2.92-0.61c-1.26,0-2.31,0.27-3.15,0.8c-0.84,0.54-1.26,1.2-1.26,2.01c0,0.73,0.31,1.33,0.92,1.8
				c0.61,0.47,1.44,0.85,2.48,1.16c1.04,0.31,2.48,0.68,4.3,1.12c2.17,0.53,3.94,1.16,5.32,1.89c1.37,0.73,2.42,1.6,3.13,2.59
				C350.55,66.36,350.9,67.49,350.9,68.77"/>
			<polygon class="st2" points="184.52,82.54 193.65,82.54 205.57,100.05 205.57,82.54 214.78,82.54 214.78,114.18 205.57,114.18 
				193.72,96.81 193.72,114.18 184.52,114.18 			"/>
			<rect x="217.56" y="82.54" class="st2" width="9.8" height="31.64"/>
			<path class="st2" d="M246.16,102.72v-6.58h15.11v13.49c-2.89,1.97-5.45,3.31-7.67,4.02c-2.22,0.71-4.86,1.07-7.91,1.07
				c-3.76,0-6.82-0.64-9.18-1.92c-2.37-1.28-4.2-3.19-5.5-5.72c-1.3-2.53-1.95-5.44-1.95-8.72c0-3.45,0.71-6.46,2.14-9.01
				c1.42-2.55,3.51-4.49,6.26-5.82c2.14-1.02,5.03-1.53,8.65-1.53c3.5,0,6.11,0.32,7.85,0.95c1.73,0.63,3.17,1.61,4.32,2.95
				c1.14,1.33,2,3.02,2.58,5.06l-9.43,1.68c-0.39-1.19-1.05-2.11-1.98-2.74c-0.93-0.63-2.11-0.95-3.55-0.95
				c-2.14,0-3.85,0.74-5.13,2.24c-1.27,1.49-1.91,3.84-1.91,7.07c0,3.42,0.64,5.87,1.93,7.34c1.29,1.47,3.08,2.2,5.39,2.2
				c1.09,0,2.14-0.16,3.13-0.48c0.99-0.32,2.13-0.85,3.41-1.62v-2.98H246.16z"/>
			<polygon class="st2" points="263.01,82.54 272.78,82.54 272.78,93.61 283.47,93.61 283.47,82.54 293.29,82.54 293.29,114.18 
				283.47,114.18 283.47,101.38 272.78,101.38 272.78,114.18 263.01,114.18 			"/>
			<polygon class="st2" points="294.48,82.54 324.2,82.54 324.2,90.35 314.23,90.35 314.23,114.18 304.45,114.18 304.45,90.35 
				294.48,90.35 			"/>
			<path class="st2" d="M332.53,82.54h16.25c3.54,0,6.19,0.84,7.95,2.53c1.76,1.68,2.64,4.08,2.64,7.19c0,3.19-0.96,5.69-2.88,7.49
				c-1.92,1.8-4.85,2.7-8.79,2.7h-5.35v11.74h-9.82V82.54z M342.35,96.03h2.39c1.89,0,3.21-0.33,3.97-0.98
				c0.76-0.65,1.14-1.49,1.14-2.51c0-0.99-0.33-1.83-0.99-2.53c-0.66-0.69-1.91-1.04-3.73-1.04h-2.78V96.03z"/>
			<path class="st2" d="M376.59,108.96h-11.1l-1.54,5.22h-9.98l11.89-31.64h10.66l11.89,31.64h-10.24L376.59,108.96z M374.56,102.11
				l-3.49-11.37l-3.46,11.37H374.56z"/>
			<polygon class="st2" points="381.63,82.54 411.34,82.54 411.34,90.35 401.38,90.35 401.38,114.18 391.6,114.18 391.6,90.35 
				381.63,90.35 			"/>
			<path class="st2" d="M412.81,114.18V82.54h16.3c3.02,0,5.33,0.26,6.93,0.78c1.6,0.52,2.88,1.48,3.86,2.88
				c0.98,1.4,1.47,3.11,1.47,5.13c0,1.76-0.38,3.27-1.12,4.54c-0.75,1.27-1.78,2.31-3.09,3.1c-0.83,0.5-1.98,0.92-3.43,1.25
				c1.17,0.39,2.01,0.78,2.54,1.17c0.36,0.26,0.88,0.81,1.56,1.66c0.68,0.85,1.14,1.51,1.37,1.97l4.74,9.17h-11.05l-5.23-9.67
				c-0.66-1.25-1.25-2.06-1.77-2.44c-0.7-0.49-1.5-0.73-2.39-0.73h-0.86v12.84H412.81z M422.63,95.36h4.12
				c0.45,0,1.31-0.14,2.59-0.43c0.65-0.13,1.18-0.46,1.59-0.99c0.41-0.53,0.61-1.14,0.61-1.83c0-1.02-0.32-1.81-0.97-2.35
				c-0.65-0.55-1.87-0.82-3.65-0.82h-4.29V95.36z"/>
			<path class="st2" d="M441.99,98.38c0-5.17,1.44-9.19,4.32-12.06c2.88-2.88,6.88-4.32,12.02-4.32c5.27,0,9.32,1.41,12.18,4.24
				c2.85,2.83,4.27,6.79,4.27,11.88c0,3.7-0.63,6.73-1.87,9.1c-1.24,2.37-3.04,4.21-5.4,5.53s-5.28,1.98-8.79,1.98
				c-3.57,0-6.52-0.57-8.86-1.71c-2.34-1.14-4.24-2.93-5.69-5.4C442.72,105.16,441.99,102.08,441.99,98.38 M451.77,98.42
				c0,3.19,0.59,5.49,1.78,6.89c1.19,1.4,2.8,2.09,4.85,2.09c2.1,0,3.73-0.68,4.88-2.05c1.15-1.37,1.72-3.82,1.72-7.36
				c0-2.98-0.6-5.15-1.8-6.53c-1.2-1.37-2.83-2.06-4.89-2.06c-1.97,0-3.55,0.7-4.74,2.09S451.77,95.2,451.77,98.42"/>
			<polygon class="st2" points="476.45,82.54 486.22,82.54 486.22,106.39 501.48,106.39 501.48,114.18 476.45,114.18 			"/>
		</g>
	</g>
</g>
</svg>
